<?xml version="1.0" encoding="utf-8"?>
<!-- Generator: Adobe Illustrator 16.0.0, SVG Export Plug-In . SVG Version: 6.00 Build 0)  -->
<!DOCTYPE svg PUBLIC "-//W3C//DTD SVG 1.1//EN" "http://www.w3.org/Graphics/SVG/1.1/DTD/svg11.dtd">
<svg version="1.1" id="Layer_1" xmlns="http://www.w3.org/2000/svg" xmlns:xlink="http://www.w3.org/1999/xlink" x="0px" y="0px"
	 width="97.778px" height="86.667px" viewBox="0 0 97.778 86.667" enable-background="new 0 0 97.778 86.667" xml:space="preserve">
<path fill="#0A0A0A" d="M77.221,14.341c-6.077-2.696-14.982-4.413-27.794-4.413C17.275,9.928,9.73,20.746,9.73,30.688h79.396
	C89.125,24.707,86.395,18.409,77.221,14.341"/>
<g>
	<path fill="#0A0A0A" d="M10.089,66.179h81.435c0,0,1.474,11.607-7,11.607H49.886"/>
	<path fill="#0A0A0A" d="M89.384,66.179H7.949c0,0-1.473,11.607,7.002,11.607h34.636"/>
</g>
<g>
	<path fill="#020202" d="M86.929,53.2H12.372c-3.001,0-5.434-2.433-5.434-5.434s2.433-5.434,5.434-5.434h74.557
		c3.001,0,5.434,2.433,5.434,5.434S89.93,53.2,86.929,53.2z"/>
</g>
</svg>
