<?xml version="1.0" encoding="utf-8"?>
<!-- Generator: Adobe Illustrator 16.0.0, SVG Export Plug-In . SVG Version: 6.00 Build 0)  -->
<!DOCTYPE svg PUBLIC "-//W3C//DTD SVG 1.1//EN" "http://www.w3.org/Graphics/SVG/1.1/DTD/svg11.dtd">
<svg version="1.1" id="Layer_1" xmlns="http://www.w3.org/2000/svg" xmlns:xlink="http://www.w3.org/1999/xlink" x="0px" y="0px"
	 width="273.5px" height="223.424px" viewBox="0 0 273.5 223.424" enable-background="new 0 0 273.5 223.424" xml:space="preserve">
<path fill="#0A0A0A" d="M24.413,64.237h236.462c0-29.753-22.471-62.125-118.23-62.125C46.883,2.112,24.413,34.484,24.413,64.237z"/>
<g>
	<g>
		<path fill="#0A0A0A" d="M71.363,106.315c-0.962,2.797-2.053,5.033-3.271,6.711c-1.22,1.678-2.461,2.964-3.725,3.859
			s-2.488,1.476-3.674,1.745c-1.187,0.269-2.237,0.403-3.154,0.403c-1.969,0-3.529-0.542-4.681-1.627
			c-1.152-1.085-1.852-2.712-2.098-4.882c-0.872,1.409-1.756,2.539-2.65,3.389s-1.778,1.51-2.65,1.979
			c-0.873,0.47-1.724,0.777-2.551,0.923c-0.827,0.145-1.6,0.218-2.315,0.218c-1.028,0-1.991-0.157-2.885-0.47
			c-0.896-0.313-1.678-0.806-2.35-1.477c-0.671-0.671-1.196-1.521-1.576-2.55c-0.381-1.028-0.571-2.27-0.571-3.724
			c0-0.626,0.051-1.314,0.151-2.064c0.101-0.749,0.24-1.56,0.42-2.433l4.06-19.293h-8.389l-7.919,37.111
			c-0.492,2.46-1.202,4.451-2.13,5.973c-0.929,1.521-1.958,2.706-3.087,3.557c-1.13,0.85-2.31,1.42-3.54,1.711
			c-1.23,0.29-2.404,0.436-3.523,0.436c-1.028,0-2.03-0.179-3.003-0.537c-0.974-0.358-1.84-0.861-2.601-1.51
			c-0.761-0.649-1.37-1.426-1.829-2.332c-0.458-0.906-0.688-1.918-0.688-3.037c0-1.588,0.308-2.925,0.923-4.01
			s1.459-2.013,2.533-2.785c1.073-0.772,2.327-1.426,3.758-1.963c1.432-0.537,2.965-1.051,4.597-1.543l8.322-39.258
			c0.491-2.46,1.213-4.451,2.164-5.973c0.95-1.521,2.007-2.707,3.171-3.557c1.162-0.85,2.37-1.42,3.623-1.711
			c1.253-0.291,2.438-0.436,3.558-0.436c1.028,0,2.029,0.179,3.003,0.537c0.973,0.358,1.834,0.861,2.583,1.51
			c0.75,0.649,1.354,1.426,1.812,2.332c0.458,0.906,0.688,1.918,0.688,3.037c0,1.074-0.067,2.013-0.201,2.818h-3.222
			c0.045-0.38,0.078-0.705,0.102-0.973c0.021-0.269,0.033-0.559,0.033-0.873c0-0.783-0.264-1.37-0.789-1.761
			c-0.525-0.391-1.135-0.587-1.828-0.587c-0.358,0-0.767,0.079-1.225,0.235c-0.459,0.157-0.918,0.442-1.376,0.855
			c-0.459,0.415-0.884,0.99-1.275,1.728c-0.392,0.738-0.699,1.678-0.922,2.819l-1.175,5.436h18.354l-4.932,23.354
			c-0.157,0.649-0.235,1.298-0.235,1.946c0,0.783,0.151,1.449,0.453,1.997c0.302,0.548,0.844,0.822,1.627,0.822
			c0.672,0,1.286-0.151,1.846-0.453c0.559-0.302,1.068-0.722,1.527-1.258c0.458-0.537,0.86-1.18,1.207-1.93
			c0.347-0.749,0.654-1.56,0.923-2.433l4.664-22.045h9.898l-4.966,23.354c-0.112,0.381-0.185,0.755-0.218,1.124
			c-0.034,0.369-0.051,0.733-0.051,1.091c0,0.962,0.229,1.627,0.688,1.996c0.458,0.369,1.168,0.554,2.13,0.554
			c0.672,0,1.292-0.151,1.862-0.453c0.57-0.302,1.085-0.722,1.544-1.258c0.458-0.537,0.866-1.18,1.225-1.93
			c0.357-0.749,0.671-1.56,0.939-2.433H71.363z M12.475,120.341c-1.073,0.357-2.074,0.755-3.003,1.191
			c-0.928,0.436-1.728,0.939-2.398,1.51c-0.672,0.571-1.197,1.213-1.577,1.93c-0.381,0.715-0.57,1.532-0.57,2.449
			c0,0.269,0.066,0.537,0.201,0.806c0.134,0.268,0.324,0.508,0.57,0.721c0.246,0.212,0.537,0.391,0.872,0.537
			c0.336,0.146,0.705,0.218,1.107,0.218c0.358,0,0.722-0.084,1.091-0.251c0.369-0.168,0.727-0.459,1.073-0.873
			c0.348-0.414,0.666-0.968,0.956-1.661c0.291-0.693,0.549-1.555,0.772-2.583L12.475,120.341z"/>
		<path fill="#0A0A0A" d="M91.296,106.315c-0.648,1.857-1.37,3.468-2.164,4.832c-0.794,1.365-1.622,2.517-2.482,3.456
			c-0.861,0.939-1.745,1.7-2.651,2.282c-0.905,0.582-1.784,1.029-2.634,1.342c-0.851,0.313-1.661,0.525-2.433,0.638
			c-0.771,0.112-1.46,0.168-2.063,0.168c-1.029,0-1.991-0.157-2.886-0.47s-1.673-0.806-2.332-1.477
			c-0.66-0.671-1.18-1.521-1.561-2.55c-0.38-1.028-0.57-2.27-0.57-3.724c0-0.626,0.045-1.314,0.135-2.064
			c0.089-0.749,0.224-1.56,0.402-2.433l7.349-34.426l10.167-1.375l-7.886,37.11c-0.112,0.381-0.185,0.755-0.218,1.124
			c-0.034,0.369-0.051,0.733-0.051,1.091c0,0.962,0.224,1.627,0.671,1.996c0.447,0.369,1.152,0.554,2.114,0.554
			c0.671,0,1.325-0.151,1.963-0.453c0.638-0.302,1.225-0.722,1.762-1.258c0.537-0.537,1.018-1.18,1.442-1.93
			c0.425-0.749,0.772-1.56,1.041-2.433H91.296z"/>
		<path fill="#0A0A0A" d="M97.207,71.755l10.167-1.375l-7.885,37.11c-0.112,0.381-0.19,0.733-0.235,1.057
			c-0.045,0.325-0.067,0.644-0.067,0.957c0,0.783,0.202,1.438,0.604,1.963c0.402,0.526,1.141,0.788,2.215,0.788
			c0.648,0,1.118-0.044,1.409-0.134c0.29-0.089,0.559-0.19,0.805-0.302c-0.089,1.23-0.363,2.298-0.821,3.205
			c-0.459,0.906-1.035,1.656-1.729,2.248c-0.693,0.593-1.477,1.035-2.349,1.325s-1.757,0.437-2.651,0.437
			c-1.028,0-1.991-0.163-2.885-0.487c-0.896-0.324-1.673-0.827-2.332-1.51c-0.66-0.682-1.181-1.549-1.561-2.601
			c-0.38-1.051-0.57-2.315-0.57-3.792c0-0.604,0.045-1.28,0.134-2.03c0.09-0.75,0.224-1.561,0.403-2.433L97.207,71.755z"/>
		<path fill="#0A0A0A" d="M151.404,106.315c-1.79,2.081-3.585,3.797-5.386,5.151s-3.506,2.5-5.117,3.439
			c-0.716,0.761-1.516,1.404-2.398,1.93c-0.884,0.526-1.801,0.951-2.752,1.275s-1.912,0.559-2.886,0.705
			c-0.973,0.145-1.896,0.218-2.768,0.218c-1.723,0-3.216-0.263-4.479-0.789c-1.265-0.525-2.311-1.208-3.138-2.047
			s-1.437-1.778-1.828-2.818c-0.392-1.041-0.588-2.086-0.588-3.138c0-0.805,0.106-1.548,0.319-2.231
			c0.213-0.682,0.486-1.292,0.822-1.829c0.335-0.537,0.721-1,1.157-1.392c0.437-0.391,0.889-0.699,1.358-0.923
			c1.924-3.445,3.546-6.85,4.866-10.217c1.319-3.366,2.516-6.75,3.59-10.15l10.167-1.342c0.134,2.975,0.263,5.553,0.386,7.734
			c0.123,2.181,0.24,4.071,0.353,5.67c0.111,1.6,0.212,2.958,0.302,4.077c0.089,1.119,0.173,2.109,0.252,2.97
			c0.078,0.861,0.134,1.644,0.167,2.349c0.034,0.705,0.051,1.438,0.051,2.198c0,0.515-0.017,0.985-0.051,1.409
			c-0.033,0.425-0.106,0.828-0.218,1.208c1.007-0.581,1.918-1.157,2.734-1.728c0.816-0.57,1.549-1.146,2.198-1.728H151.404z
			 M123.721,108.798c0,1.611,0.319,2.813,0.957,3.607s1.716,1.191,3.237,1.191c0.761,0,1.499-0.106,2.215-0.319
			c0.716-0.212,1.354-0.57,1.913-1.074c0.559-0.503,1.006-1.157,1.342-1.963c0.336-0.805,0.503-1.812,0.503-3.02
			c0-0.582-0.017-1.146-0.05-1.695c-0.034-0.548-0.073-1.129-0.117-1.745c-0.046-0.615-0.106-1.303-0.185-2.063
			c-0.079-0.76-0.168-1.644-0.269-2.651c-0.101-1.006-0.207-2.169-0.319-3.49c-0.112-1.319-0.234-2.863-0.369-4.63
			c-0.693,2.237-1.51,4.407-2.449,6.51s-1.979,4.261-3.12,6.476c0.447,0.247,0.821,0.56,1.124,0.939
			c0.302,0.381,0.453,0.862,0.453,1.443c0,0.425-0.067,0.839-0.202,1.242c-0.134,0.402-0.335,0.767-0.604,1.09
			c-0.269,0.325-0.587,0.582-0.956,0.772c-0.369,0.19-0.789,0.285-1.259,0.285c-0.381,0-0.738-0.056-1.073-0.168
			C124.158,109.425,123.901,109.179,123.721,108.798z"/>
		<path fill="#0A0A0A" d="M171.337,106.315c-0.648,1.857-1.37,3.468-2.164,4.832c-0.794,1.365-1.622,2.517-2.482,3.456
			c-0.861,0.939-1.745,1.7-2.651,2.282c-0.905,0.582-1.784,1.029-2.634,1.342c-0.851,0.313-1.661,0.525-2.433,0.638
			c-0.771,0.112-1.46,0.168-2.063,0.168c-1.029,0-1.991-0.157-2.886-0.47s-1.673-0.806-2.332-1.477
			c-0.66-0.671-1.18-1.521-1.561-2.55c-0.38-1.028-0.57-2.27-0.57-3.724c0-0.626,0.045-1.314,0.135-2.064
			c0.089-0.749,0.224-1.56,0.402-2.433l4.127-19.293h-2.281l0.57-2.751h2.248l2.08-9.496l10.167-1.376l-2.349,10.872h4.127
			l-0.537,2.751h-4.127l-4.396,20.602c-0.112,0.381-0.185,0.755-0.218,1.124c-0.034,0.369-0.051,0.733-0.051,1.091
			c0,0.962,0.224,1.627,0.671,1.996c0.447,0.369,1.152,0.554,2.114,0.554c0.671,0,1.325-0.151,1.963-0.453
			c0.638-0.302,1.225-0.722,1.762-1.258c0.537-0.537,1.018-1.18,1.442-1.93c0.425-0.749,0.772-1.56,1.041-2.433H171.337z"/>
		<path fill="#0A0A0A" d="M209.057,106.315c-0.649,1.857-1.354,3.468-2.114,4.832c-0.761,1.365-1.549,2.517-2.365,3.456
			c-0.817,0.939-1.65,1.7-2.5,2.282c-0.851,0.582-1.678,1.029-2.482,1.342c-0.806,0.313-1.577,0.525-2.315,0.638
			c-0.738,0.112-1.409,0.168-2.014,0.168c-1.946,0-3.495-0.531-4.647-1.594c-1.152-1.062-1.851-2.634-2.097-4.714
			c-0.56,0.783-1.175,1.549-1.846,2.298s-1.421,1.421-2.248,2.013c-0.828,0.593-1.75,1.074-2.769,1.443
			c-1.018,0.369-2.142,0.554-3.372,0.554c-1.186,0-2.326-0.19-3.422-0.571c-1.097-0.38-2.069-1.006-2.92-1.879
			c-0.85-0.873-1.532-2.013-2.046-3.422c-0.515-1.409-0.772-3.132-0.772-5.167c0-1.565,0.157-3.243,0.47-5.033
			c0.313-1.789,0.794-3.579,1.443-5.369c0.648-1.789,1.459-3.506,2.433-5.15c0.973-1.644,2.113-3.098,3.422-4.362
			c1.309-1.264,2.791-2.27,4.446-3.02c1.655-0.749,3.479-1.124,5.47-1.124c1.945,0,3.36,0.335,4.244,1.007
			c0.884,0.671,1.325,1.499,1.325,2.483v0.503l0.738-3.658h9.898l-4.933,23.354c-0.112,0.381-0.19,0.755-0.234,1.124
			c-0.045,0.369-0.067,0.733-0.067,1.091c0,1.969,0.939,2.953,2.818,2.953c0.671,0,1.292-0.173,1.862-0.52
			c0.57-0.347,1.091-0.811,1.561-1.393c0.47-0.582,0.884-1.269,1.241-2.063c0.357-0.794,0.66-1.627,0.906-2.5H209.057z
			 M191.743,90.813c0-0.201-0.045-0.453-0.134-0.755c-0.09-0.302-0.24-0.592-0.453-0.873c-0.213-0.279-0.498-0.514-0.855-0.705
			c-0.358-0.189-0.816-0.285-1.376-0.285c-0.962,0-1.873,0.313-2.734,0.939c-0.861,0.626-1.65,1.46-2.365,2.5
			c-0.717,1.04-1.354,2.22-1.913,3.54c-0.56,1.32-1.035,2.679-1.426,4.077c-0.392,1.398-0.688,2.774-0.89,4.127
			c-0.201,1.354-0.302,2.567-0.302,3.641c0,1.32,0.123,2.338,0.369,3.054s0.542,1.247,0.89,1.594
			c0.347,0.347,0.721,0.554,1.124,0.621c0.402,0.067,0.76,0.101,1.073,0.101c0.515,0,1.057-0.128,1.628-0.386
			c0.57-0.257,1.118-0.638,1.644-1.141c0.525-0.503,1.007-1.135,1.443-1.896c0.436-0.76,0.766-1.644,0.989-2.651L191.743,90.813z"/>
		<path fill="#0A0A0A" d="M236.474,106.315c-0.963,1.611-2.064,3.177-3.306,4.698c-1.241,1.521-2.64,2.875-4.194,4.06
			c-1.555,1.186-3.277,2.142-5.167,2.869c-1.891,0.727-3.965,1.091-6.225,1.091c-1.633,0-3.109-0.207-4.429-0.621
			c-1.32-0.414-2.449-1.057-3.389-1.929c-0.94-0.873-1.661-1.997-2.165-3.372c-0.503-1.376-0.755-3.037-0.755-4.983
			c0-1.319,0.135-2.846,0.403-4.58c0.268-1.733,0.698-3.506,1.291-5.318s1.364-3.59,2.315-5.335c0.951-1.745,2.114-3.299,3.49-4.664
			c1.375-1.364,2.969-2.466,4.781-3.305c1.812-0.839,3.881-1.258,6.207-1.258c1.521,0,2.773,0.185,3.759,0.554
			c0.983,0.369,1.767,0.851,2.349,1.443c0.581,0.593,0.983,1.27,1.208,2.03c0.223,0.761,0.335,1.521,0.335,2.282
			c0,0.851-0.096,1.583-0.285,2.198c-0.19,0.616-0.453,1.136-0.788,1.561c-0.336,0.425-0.728,0.738-1.175,0.939
			s-0.917,0.302-1.409,0.302c-0.783,0-1.589-0.268-2.416-0.805c0.559-1.476,0.839-2.83,0.839-4.06c0-0.85-0.156-1.532-0.47-2.047
			c-0.313-0.514-0.794-0.771-1.442-0.771c-0.717,0-1.433,0.324-2.147,0.973c-0.717,0.649-1.404,1.51-2.063,2.583
			c-0.66,1.074-1.271,2.304-1.829,3.691c-0.56,1.387-1.046,2.83-1.46,4.329c-0.414,1.499-0.738,2.992-0.973,4.479
			c-0.235,1.488-0.353,2.869-0.353,4.144c0,1.164,0.106,2.12,0.319,2.869c0.212,0.75,0.525,1.337,0.939,1.762
			c0.413,0.425,0.928,0.721,1.543,0.889c0.615,0.167,1.337,0.251,2.164,0.251c1.364,0,2.601-0.179,3.708-0.537
			s2.142-0.85,3.104-1.477c0.962-0.626,1.873-1.364,2.735-2.215c0.86-0.85,1.728-1.755,2.6-2.718H236.474z"/>
		<path fill="#0A0A0A" d="M263.186,107.624c-0.112,0.381-0.196,0.75-0.251,1.107c-0.057,0.358-0.084,0.727-0.084,1.107
			c0,0.693,0.179,1.292,0.536,1.795c0.358,0.503,1.074,0.755,2.147,0.755c0.403,0,0.732-0.011,0.99-0.033
			c0.257-0.022,0.47-0.056,0.638-0.101c0.168-0.044,0.307-0.095,0.419-0.151c0.112-0.056,0.235-0.106,0.369-0.151
			c-0.09,1.23-0.386,2.288-0.889,3.171c-0.504,0.884-1.091,1.616-1.762,2.198c-0.671,0.582-1.348,1.012-2.03,1.292
			c-0.683,0.279-1.258,0.419-1.728,0.419c-2.864,0-5.022-0.676-6.477-2.03c-1.454-1.353-2.181-3.282-2.181-5.788
			c0-1.074,0.134-2.27,0.402-3.59l0.57-2.684c0.112-0.447,0.185-0.883,0.219-1.309c0.033-0.425,0.05-0.828,0.05-1.208
			c0-1.007-0.179-1.812-0.537-2.416c-0.357-0.604-1.006-0.906-1.945-0.906c-0.783,0-1.583,0.229-2.399,0.688
			s-1.706,1.079-2.668,1.862l-3.59,16.979h-9.898l9.966-46.741l10.167-1.375l-5.134,24.192l13.253-10.436h6.812l-13.757,9.563
			c0.761-0.201,1.521-0.302,2.282-0.302c1.274,0,2.387,0.212,3.338,0.637c0.951,0.425,1.739,1.007,2.366,1.745
			c0.626,0.738,1.09,1.594,1.393,2.566c0.302,0.973,0.452,2.008,0.452,3.104c0,0.425-0.017,0.855-0.05,1.292
			c-0.034,0.436-0.106,0.878-0.218,1.325L263.186,107.624z"/>
		<path fill="#0A0A0A" d="M39.205,142.452c5.223,0,8.934,1.146,11.133,3.436c1.649,1.742,2.474,3.94,2.474,6.597
			c0,0.917-0.092,1.879-0.274,2.886l-0.619,3.298c-0.504,2.611-1.477,4.65-2.92,6.116c-1.443,1.467-2.715,2.199-3.814,2.199
			l-0.068,0.55c1.282,0,2.588,0.711,3.917,2.13c1.328,1.42,1.993,3.092,1.993,5.016c0,0.78-0.093,1.604-0.275,2.474l-0.412,2.13
			c-0.733,3.94-2.485,7.033-5.257,9.277c-2.772,2.245-6.632,3.367-11.579,3.367H10.549l8.728-49.478H39.205z M33.02,171.727h-6.528
			l-1.649,9.483h6.528c0.092,0,0.183,0,0.275,0c2.106,0,3.779-0.492,5.017-1.478c1.236-0.984,1.855-2.187,1.855-3.607
			C38.518,173.193,36.685,171.727,33.02,171.727z M34.875,153.172h-5.153l-1.787,10.239h5.085c4.398,0,6.598-1.924,6.598-5.772
			c0-1.328-0.402-2.405-1.203-3.23C37.613,153.585,36.432,153.172,34.875,153.172z"/>
		<path fill="#0A0A0A" d="M88.716,188.322c-3.643,3.047-8.785,4.57-15.428,4.57c-6.644,0-11.247-1.534-13.812-4.604
			c-1.833-2.106-2.749-5.017-2.749-8.727c0-1.649,0.183-3.458,0.55-5.429l5.566-31.679h12.369l-5.565,31.405
			c-0.184,1.146-0.275,2.336-0.275,3.573c0,3.207,1.924,4.81,5.772,4.81c2.29,0,4.123-0.595,5.497-1.787
			c1.375-1.191,2.337-3.39,2.887-6.597l5.566-31.405h12.369l-5.566,31.679C94.751,180.546,92.358,185.276,88.716,188.322z"/>
		<path fill="#0A0A0A" d="M129.637,142.452c5.223,0,8.934,1.146,11.133,3.436c1.649,1.742,2.474,3.94,2.474,6.597
			c0,0.917-0.092,1.879-0.274,2.886l-0.962,5.36c-0.55,2.979-1.502,5.384-2.853,7.215c-1.352,1.833-2.852,3.139-4.501,3.917
			l6.254,20.066h-13.882l-5.772-18.485h-4.26l-2.817,18.485h-13.194l8.728-49.478H129.637z M125.308,153.172h-5.153l-1.787,11.957
			h4.811c2.428,0,4.168-0.584,5.223-1.752c1.053-1.168,1.58-2.714,1.58-4.638C129.981,155.028,128.423,153.172,125.308,153.172z"/>
		<path fill="#0A0A0A" d="M162.209,192.892c-6.506,0-10.995-1.512-13.469-4.535c-1.695-2.107-2.542-4.993-2.542-8.659
			c0-1.694,0.183-3.55,0.55-5.566l2.404-13.744c2.153-12.277,9.666-18.417,22.54-18.417c5.313,0,9.346,1.134,12.095,3.402
			c2.749,2.268,4.123,5.372,4.123,9.311c0,1.604-0.218,3.23-0.653,4.879c-0.436,1.649-0.858,2.886-1.271,3.71l-0.688,1.237h-12.163
			c1.19-1.649,1.786-3.549,1.786-5.704c0-4.123-1.718-6.185-5.153-6.185c-4.628,0-7.399,2.68-8.315,8.04l-2.336,13.194
			c-0.23,1.237-0.344,2.451-0.344,3.642c0,3.161,1.866,4.741,5.601,4.741c3.733,0,6.127-1.878,7.181-5.635h-5.635l1.375-7.628h18.21
			l-1.1,5.91l-0.344,1.993C182.138,187.555,174.854,192.892,162.209,192.892z"/>
		<path fill="#0A0A0A" d="M222.957,191.93h-34.497l8.728-49.478h34.496l-1.924,10.72h-22.127l-1.581,9.277h18.279l-1.924,10.72
			h-18.279l-1.375,8.04h22.128L222.957,191.93z"/>
		<path fill="#0A0A0A" d="M258.415,142.452c5.223,0,8.934,1.146,11.133,3.436c1.649,1.742,2.474,3.94,2.474,6.597
			c0,0.917-0.092,1.879-0.274,2.886l-0.962,5.36c-0.55,2.979-1.502,5.384-2.853,7.215c-1.352,1.833-2.852,3.139-4.501,3.917
			l6.254,20.066h-13.882l-5.772-18.485h-4.26l-2.817,18.485h-13.194l8.728-49.478H258.415z M254.085,153.172h-5.153l-1.787,11.957
			h4.811c2.428,0,4.168-0.584,5.223-1.752c1.053-1.168,1.58-2.714,1.58-4.638C258.758,155.028,257.201,153.172,254.085,153.172z"/>
	</g>
</g>
<g>
	<path fill="#0A0A0A" d="M17.582,199.372h253.116c0,0,4.579,24.052-21.761,24.052H141.276"/>
	<path fill="#0A0A0A" d="M264.041,199.372H10.928c0,0-4.58,24.052,21.761,24.052h107.659"/>
</g>
<g>
	<path fill="#020202" d="M260.389,136.649H28.649c-3.312,0-5.996-2.685-5.996-5.996s2.685-5.996,5.996-5.996h231.739
		c3.312,0,5.996,2.685,5.996,5.996S263.7,136.649,260.389,136.649z"/>
</g>
</svg>
