<?xml version="1.0" encoding="utf-8"?>
<!-- Generator: Adobe Illustrator 16.0.0, SVG Export Plug-In . SVG Version: 6.00 Build 0)  -->
<!DOCTYPE svg PUBLIC "-//W3C//DTD SVG 1.1//EN" "http://www.w3.org/Graphics/SVG/1.1/DTD/svg11.dtd">
<svg version="1.1" id="Layer_1" xmlns="http://www.w3.org/2000/svg" xmlns:xlink="http://www.w3.org/1999/xlink" x="0px" y="0px"
	 width="114.794px" height="114.787px" viewBox="0 0 114.794 114.787" enable-background="new 0 0 114.794 114.787"
	 xml:space="preserve">
<g>
	<path fill="#FFFFFF" d="M16.612,25.973c-3.341,1.014-6.16,1.869-9.792,2.972c5.754,7.406,0.855,10.874-5.003,13.556
		c1.688,3.104,3.031,5.573,4.43,8.145C4.157,52.9,2.158,55.06,0,57.39c2.151,2.368,4.125,4.539,6.149,6.768
		c-1.425,2.65-2.756,5.125-4.381,8.146c7.128,2.231,9.613,6.654,5.135,14.076c8.973-0.341,10.889,4.522,9.608,11.543
		c3.591,0.19,6.531,0.347,9.511,0.506c0.938,3.064,1.8,5.883,2.81,9.186c6.908-4.218,11.122-1.663,13.345,5.342
		c3.163-1.661,5.764-3.027,8.427-4.426c2.276,2.116,4.432,4.119,6.731,6.257c2.424-2.244,4.579-4.241,6.764-6.264
		c2.785,1.458,5.371,2.813,7.879,4.126c5.171-7.034,5.171-7.034,14.6-5.846c-0.791-8.323,4.501-9.727,11.961-8.603
		c-2.67-8.562,1.992-11.323,8.415-12.008c-0.593-3.453-2.207-6.743-1.237-8.835c1.064-2.293,4.512-3.48,7.038-5.231
		c-1.545-2.821-2.956-5.398-4.379-7.998c2.249-2.353,4.279-4.476,6.419-6.713c-2.339-2.48-4.355-4.62-6.391-6.777
		c1.522-2.821,2.912-5.395,4.26-7.895c-7.357-5.537-7.357-5.537-5.719-13.986c-2.885-0.961-5.802-1.933-8.957-2.983
		c0-3.107,0-5.889,0-8.987c-3.283-0.179-6.218-0.339-9.279-0.506c-0.916-2.947-1.789-5.761-2.83-9.115
		C78.72,11.9,74.734,8.355,72.312,1.825c-3.191,1.756-5.758,3.168-8.195,4.51C61.606,4.018,59.458,2.034,57.253,0
		c-2.392,2.29-4.426,4.236-6.56,6.278c-2.689-1.464-5.281-2.876-8.647-4.708c-1.729,7.949-6.64,9.197-13.251,5.684
		c-1.048,3.431-1.906,6.239-2.881,9.431c-3.127,0-6.051,0-9.303,0C16.612,19.956,16.612,22.744,16.612,25.973z"/>
	<path fill-rule="evenodd" clip-rule="evenodd" d="M16.612,25.973c0-3.229,0-6.017,0-9.288c3.252,0,6.175,0,9.303,0
		c0.975-3.191,1.833-6,2.881-9.431c6.611,3.514,11.522,2.266,13.251-5.684c3.366,1.832,5.958,3.244,8.647,4.708
		C52.827,4.236,54.861,2.29,57.253,0c2.204,2.034,4.353,4.018,6.863,6.335c2.438-1.342,5.004-2.754,8.195-4.51
		c2.422,6.53,6.408,10.075,13.566,5.341c1.041,3.354,1.914,6.168,2.83,9.115c3.062,0.167,5.996,0.327,9.279,0.506
		c0,3.099,0,5.88,0,8.987c3.155,1.051,6.072,2.022,8.957,2.983c-1.639,8.449-1.639,8.449,5.719,13.986
		c-1.348,2.5-2.737,5.073-4.26,7.895c2.035,2.157,4.052,4.297,6.391,6.777c-2.14,2.237-4.17,4.36-6.419,6.713
		c1.423,2.6,2.834,5.177,4.379,7.998c-2.526,1.751-5.974,2.938-7.038,5.231c-0.97,2.092,0.645,5.382,1.237,8.835
		c-6.423,0.685-11.085,3.445-8.415,12.008c-7.46-1.124-12.752,0.279-11.961,8.603c-9.429-1.188-9.429-1.188-14.6,5.846
		c-2.508-1.312-5.094-2.668-7.879-4.126c-2.185,2.022-4.34,4.02-6.764,6.264c-2.3-2.138-4.455-4.141-6.731-6.257
		c-2.663,1.398-5.264,2.765-8.427,4.426c-2.223-7.005-6.437-9.56-13.345-5.342c-1.01-3.303-1.872-6.121-2.81-9.186
		c-2.98-0.159-5.92-0.315-9.511-0.506c1.281-7.021-0.635-11.884-9.608-11.543c4.478-7.422,1.993-11.845-5.135-14.076
		c1.625-3.021,2.956-5.496,4.381-8.146C4.125,61.929,2.151,59.758,0,57.39c2.158-2.33,4.157-4.489,6.246-6.745
		c-1.398-2.571-2.742-5.041-4.43-8.145c5.858-2.682,10.757-6.149,5.003-13.556C10.452,27.842,13.271,26.986,16.612,25.973z"/>
</g>
</svg>
